<svg width="300" height="31" viewBox="0 0 300 31" fill="none" xmlns="http://www.w3.org/2000/svg">
<g clip-path="url(#clip0_12_10)">
<path d="M26.3497 19.0249C26.3497 24.6981 28.1058 28.2094 33.1045 28.2094C35.2536 28.2094 37.0542 27.7709 39.5962 26.639L39.8593 27.1624C37.184 29.6064 34.4643 31.0034 31.6114 31.0034C25.8201 31.0034 21.8704 26.9007 21.8704 20.8333C21.8704 14.7658 26.3462 10.2008 31.7412 10.2008C37.1362 10.2008 40.1224 14.0078 40.078 19.0249H26.3462H26.3497ZM35.5611 17.6721C35.2638 13.2294 34.1022 11.2477 31.4371 11.2477C28.7721 11.2477 26.6537 14.0078 26.3907 18.0222L35.5611 17.6721Z" fill="black"/>
<path d="M77.3439 28.8178L69.711 18.6068L75.8986 12.366L78.7482 11.2749V10.663H70.3226V11.1423L72.6494 12.6719L67.1245 19.4362H65.2351V0.0849781L65.0574 0L57.9063 1.87632V2.3114L61.0223 4.23191V28.8348C60.6772 28.9605 59.9461 29.2019 59.4609 29.2189C57.6979 29.2766 56.7241 27.9918 56.7241 26.7273V16.0982C56.7241 12.1689 55.1388 9.92544 51.0216 9.92544C46.9045 9.92544 41.653 11.6692 41.653 14.6808C41.653 15.9045 42.4867 16.9956 43.932 16.9956C45.2918 16.9956 46.1699 15.9045 46.1699 14.725C46.1699 13.8514 45.8282 12.9982 44.8203 12.1689C45.7667 11.6998 46.7849 11.4516 47.663 11.4516C50.557 11.4516 52.6514 12.7331 52.6514 16.2988V19.4056C45.982 20.0616 40.9048 21.7816 40.9048 26.2242C40.9048 28.9299 42.7908 30.8232 45.7736 30.8232C48.1414 30.8232 50.721 29.0217 52.6514 27.1012L52.8257 27.1862C52.9589 29.4534 54.2778 30.3066 57.4485 30.3066C57.4519 30.3066 67.5585 30.2964 67.5585 30.2964V29.7287L65.2351 28.8552V20.6395H66.6701L72.3863 28.811L70.6745 29.7287V30.2964H79.7117V29.7287L77.3405 28.811L77.3439 28.8178ZM52.6514 26.4486C51.1617 27.278 49.4602 28.1617 48.3634 28.1617C46.5184 28.1617 45.2918 26.8361 45.2918 24.9598C45.2918 22.6042 47.4307 20.5783 52.6514 20.5341V26.4486Z" fill="black"/>
<path d="M281.932 19.0249C281.932 24.6981 283.689 28.2094 288.691 28.2094C290.84 28.2094 292.64 27.7709 295.182 26.639L295.445 27.1624C292.77 29.6064 290.051 31.0034 287.198 31.0034C281.406 31.0034 277.457 26.9007 277.457 20.8333C277.457 14.7658 281.932 10.2008 287.327 10.2008C292.722 10.2008 295.709 14.0078 295.664 19.0249H281.932ZM291.147 17.6721C290.85 13.2294 289.688 11.2477 287.023 11.2477C284.358 11.2477 282.24 14.0078 281.977 18.0222L291.147 17.6721Z" fill="black"/>
<path d="M106.56 19.0249C106.56 24.6981 108.316 28.2094 113.315 28.2094C115.464 28.2094 117.265 27.7709 119.807 26.639L120.07 27.1624C117.394 29.6064 114.675 31.0034 111.822 31.0034C106.031 31.0034 102.081 26.9007 102.081 20.8333C102.081 14.7658 106.557 10.2008 111.952 10.2008C117.347 10.2008 120.333 14.0078 120.288 19.0249H106.557H106.56ZM115.775 17.6721C115.478 13.2294 114.316 11.2477 111.651 11.2477C108.986 11.2477 106.868 14.0078 106.605 18.0222L115.775 17.6721Z" fill="black"/>
<path d="M133.928 15.2892C132.612 15.2892 131.601 14.3307 131.341 12.8011C129.76 12.9336 128.311 14.0248 127.655 15.3334V28.8653L130.682 29.7389V30.3066H120.593V29.7389L123.445 28.8653V13.8514L120.637 11.9717V11.5808L127.218 9.92542L127.395 10.0546L127.31 14.2899L127.484 14.3749C129.018 11.625 131.345 9.9662 133.364 9.9662C135.383 9.9662 136.347 11.2307 136.347 12.7161C136.347 14.2015 135.38 15.2892 133.935 15.2892H133.928Z" fill="black"/>
<path d="M149.224 0.0952148C150.489 0.0952148 151.462 0.611882 152.023 1.3019C152.815 2.27745 152.86 3.68129 151.705 4.61265C150.618 5.48622 149.214 5.1803 148.449 4.23875C147.882 3.54193 147.591 2.57657 147.919 1.27131C147.919 1.27131 147.718 1.25771 147.13 1.47186C144.936 2.27745 144.021 4.33052 144.021 8.60662V10.884H149.464V12.8487H144.021V28.8688L147.489 29.7424V30.31H136.958V29.7424L139.811 28.8688V12.8487H136.931V12.1077L139.811 10.8534V10.398C139.811 6.38019 140.85 3.86144 143.269 2.00892C145.015 0.673066 147.212 0.098614 149.228 0.098614L149.224 0.0952148Z" fill="black"/>
<path d="M158.234 30.8946C151.828 30.8946 148.493 26.3669 148.493 20.4729C148.493 14.9731 152.265 10.0953 158.805 10.0953C165.344 10.0953 168.542 14.4938 168.542 20.3879C168.542 25.8877 164.811 30.898 158.234 30.898V30.8946ZM158.408 11.2374C155.337 11.2374 153.188 14.317 153.188 20.5612C153.188 26.8054 155.511 29.7083 158.627 29.7083C161.743 29.7083 163.803 26.6695 163.803 20.3879C163.803 14.1063 161.654 11.2408 158.408 11.2408V11.2374Z" fill="black"/>
<path d="M181.919 15.2892C180.603 15.2892 179.596 14.3307 179.329 12.8011C177.75 12.9336 176.302 14.0248 175.646 15.3334V28.8653L178.673 29.7389V30.3066H168.583V29.7389L171.433 28.8653V13.8514L168.624 11.9717V11.5808L175.205 9.92542L175.383 10.0546L175.294 14.2899L175.468 14.3749C177.002 11.625 179.329 9.9662 181.345 9.9662C183.361 9.9662 184.328 11.2307 184.328 12.7161C184.328 14.2015 183.364 15.2892 181.915 15.2892H181.919Z" fill="black"/>
<path d="M208.425 13.1512C206.669 13.1512 205.661 13.763 203.994 14.6366V28.8653L206.714 29.7389V30.3065H197.195V29.7389L199.785 28.8653V17.6924C199.785 14.5482 198.866 13.1512 196.013 13.1512C194.26 13.1512 193.337 13.5013 191.67 14.3714V28.8619L194.256 29.7355V30.3031H184.604V29.7355L187.457 28.8619V13.848L184.649 11.9683V11.5774L191.233 9.922L191.407 10.0512L191.321 13.5421L191.496 13.6304C194.086 11.1865 196.279 9.96619 198.647 9.96619C201.541 9.96619 203.034 11.7099 203.605 13.763L203.823 13.8514C206.41 11.404 208.736 9.9254 211.104 9.9254C215.054 9.9254 216.414 12.937 216.414 16.0336V28.8653L219.267 29.7389V30.3065H209.615V29.7389L212.245 28.8653V17.8657C212.245 14.8099 211.282 13.1512 208.429 13.1512H208.425Z" fill="black"/>
<path d="M256.943 28.8619V16.0302C256.943 12.9302 255.497 10.007 251.548 10.007C249.176 10.007 246.679 11.1865 244.045 13.6304L243.87 13.5421L243.956 10.0512L243.778 9.922L237.198 11.5774V11.9683L240.003 13.848V28.7633L239.986 28.7701V28.7633C239.986 28.7633 238.691 29.195 238.035 29.2188C236.272 29.2766 235.298 27.9917 235.298 26.7273V16.0982C235.298 12.1688 233.712 9.9254 229.595 9.9254C225.478 9.9254 220.227 11.6691 220.227 14.6808C220.227 15.9045 221.06 16.9956 222.509 16.9956C223.869 16.9956 224.747 15.9045 224.747 14.725C224.747 13.8514 224.405 12.9982 223.397 12.1688C224.344 11.6997 225.362 11.4516 226.24 11.4516C229.134 11.4516 231.229 12.7331 231.229 16.2988V19.4056C224.559 20.0616 219.482 21.7815 219.482 26.2242C219.482 28.9299 221.368 30.8232 224.351 30.8232C226.719 30.8232 229.298 29.0217 231.225 27.1012L231.399 27.1861C231.533 29.4534 232.851 30.3031 236.022 30.3031C236.032 30.3031 246.802 30.2997 246.802 30.2997V29.7321L244.215 28.8585V14.3681C245.883 13.4945 247.113 13.192 248.91 13.192C251.719 13.192 252.771 14.8065 252.771 17.9065V28.8619L250.137 29.7355V30.3031H259.744V29.7355L256.936 28.8619H256.943ZM231.232 26.4485C229.742 27.2779 228.041 28.1617 226.944 28.1617C225.099 28.1617 223.872 26.836 223.872 24.9597C223.872 22.6041 226.011 20.5782 231.232 20.5341V26.4485Z" fill="black"/>
<path d="M274.228 16.9038C272.561 16.9038 271.594 15.5509 271.594 14.1539C271.594 13.1036 271.99 12.1008 272.557 11.404C271.987 11.3156 271.594 11.2748 270.849 11.2748C267.207 11.2748 263.872 13.8072 263.872 19.9154C263.872 24.6742 266.462 28.2093 270.716 28.2093C272.865 28.2093 274.751 27.5974 276.859 26.6797L277.077 27.2473C274.884 29.5179 272.075 30.9999 269.178 30.9999C263.52 30.9999 259.44 26.9414 259.44 20.874C259.44 14.8065 263.961 10.007 270.319 10.007C274.224 10.007 276.77 11.8391 276.77 14.1097C276.77 15.6801 275.718 16.9038 274.224 16.9038H274.228Z" fill="black"/>
<path d="M297.205 5.91785C298.725 5.91785 300 7.11094 300 8.67793C300 10.2449 298.725 11.4652 297.205 11.4652C295.685 11.4652 294.393 10.2721 294.393 8.67793C294.393 7.08375 295.674 5.91785 297.205 5.91785ZM297.205 11.0573C298.493 11.0573 299.494 10.0342 299.494 8.67793C299.494 7.32168 298.493 6.32574 297.205 6.32574C295.917 6.32574 294.902 7.34888 294.902 8.67793C294.902 10.007 295.9 11.0573 297.205 11.0573ZM296.115 7.06675H297.372C298.148 7.06675 298.517 7.36927 298.517 7.99131C298.517 8.57936 298.141 8.8241 297.659 8.87508L298.592 10.3095H298.046L297.161 8.91587H296.621V10.3095H296.115V7.06675ZM296.621 8.50798H297.15C297.595 8.50798 298.008 8.48418 298.008 7.97092C298.008 7.53923 297.636 7.47465 297.29 7.47465H296.621V8.50798Z" fill="black"/>
<path d="M13.0723 1.99524H0.0102514V2.82802L4.36996 3.7084V28.6478L0.00341797 29.5281V30.3609H13.4345V29.5281L9.12601 28.6478V3.49765C9.93235 3.29031 11.0154 3.16454 12.1327 3.16454C16.1542 3.16454 18.3648 5.85664 18.3648 10.714C18.3648 15.5713 16.1952 18.1411 12.037 18.1411C11.8115 18.1411 11.2717 18.1411 10.8275 18.1343V18.9739C10.8275 18.9739 15.2385 19.6639 15.4674 19.6979C15.6929 19.7319 15.8979 19.7183 15.9833 19.7047C21.0708 18.7597 23.4283 14.4258 23.4283 10.5678C23.4283 5.76827 19.9945 1.99524 13.0757 1.99524H13.0723Z" fill="black"/>
<path d="M93.3648 1.99524H80.3027V2.82802L84.6624 3.7084V28.6478L80.2959 29.5281V30.3609H93.727V29.5281L89.4185 28.6478V3.49765C90.2248 3.29031 91.3079 3.16454 92.4252 3.16454C96.4466 3.16454 98.6573 5.85664 98.6573 10.714C98.6573 15.5713 96.4876 18.1411 92.3295 18.1411C92.104 18.1411 91.5642 18.1411 91.12 18.1343V18.9739C91.12 18.9739 95.531 19.6639 95.7599 19.6979C95.9854 19.7319 96.1904 19.7183 96.2758 19.7047C101.363 18.7597 103.721 14.4258 103.721 10.5678C103.721 5.76827 100.287 1.99524 93.3682 1.99524H93.3648Z" fill="black"/>
</g>
<defs>
<clipPath id="clip0_12_10">
<rect width="300" height="31" fill="white"/>
</clipPath>
</defs>
</svg>
